<svg width="22" height="23" viewBox="0 0 22 23" fill="none" xmlns="http://www.w3.org/2000/svg">
<g clip-path="url(#clip0_457_5019)">
<path fill-rule="evenodd" clip-rule="evenodd" d="M6.46562 7.53572L6.29206 8.02942C5.86509 8.55804 5.07214 9.96905 5.31612 11.3841C4.21824 12.6649 3.421 13.7298 3.55992 13.9481C3.69883 14.1664 4.17492 14.2458 4.80996 14.2656C4.79524 14.7072 4.80235 16.0765 4.80701 16.9732L4.80701 16.9732C4.80863 17.2856 4.80996 17.5405 4.80996 17.6789C4.80996 18.2148 5.51183 18.6315 6.29206 18.3934C6.91623 18.2028 8.06452 17.7451 8.56065 17.54C9.26183 18.5587 10.6086 20.9176 10.3864 22.2036C10.1641 23.4895 9.73811 24.6048 9.55289 25.0017C11.5175 25.2994 16.2049 25.1287 19.2372 22.0647C18.7095 21.4267 18.1225 21.0732 17.5505 20.7288C16.6811 20.2053 15.8465 19.7027 15.3079 18.2544C14.4792 16.0262 15.4107 15.2163 16.8813 13.9377C16.9954 13.8384 17.1128 13.7364 17.2329 13.6306C17.4556 13.4343 17.7454 13.1918 18.0814 12.918C16.9853 11.2855 15.6294 9.90068 13.8582 8.94108C11.9727 7.91955 9.58115 7.36062 6.46562 7.53572ZM6.82341 6.51798C8.47807 6.45681 9.95227 6.59705 11.2706 6.90742C11.1098 6.49696 10.9116 6.09634 10.5755 5.7535C10.0671 5.23482 9.16772 4.79953 7.34742 5.02743L6.82341 6.51798ZM7.71334 3.98656C9.45964 3.86097 10.5674 4.31662 11.2897 5.05352C11.9143 5.69082 12.2023 6.51298 12.3973 7.06953L12.3973 7.06956C12.4193 7.13219 12.44 7.19145 12.46 7.2467C13.1276 7.47235 13.7511 7.74576 14.3345 8.06183C16.2534 9.10142 17.7077 10.5861 18.8638 12.2897C20.537 10.9617 22.7865 9.25839 24 8.35183C22.2468 3.68564 16.5057 -1.46354 9.03669 0.222292L7.71334 3.98656ZM6.50171 11.1558C6.50171 12.2228 8.30937 12.4006 10.0579 11.9561C9.05024 11.1558 6.9463 10.3555 6.50171 11.1558ZM12.2101 12.1289C11.939 12.1815 11.5579 12.1252 11.5052 11.8542C11.4525 11.5831 11.7877 11.3778 12.0588 11.3251C13.0161 11.1391 14.529 11.5123 14.5984 12.6855C14.6671 13.8471 13.4437 14.8407 12.6426 15.4914L12.6086 15.519C12.3943 15.6931 11.8373 15.6396 11.6632 15.4253C11.4891 15.211 11.6254 14.8231 11.8398 14.649C11.9513 14.5584 12.1146 14.4501 12.2994 14.3277C12.917 13.9186 13.7743 13.3506 13.7388 12.7499C13.7115 12.2882 12.9267 11.9113 12.2101 12.1289Z" fill="#492801"/>
</g>
<defs>
<clipPath id="clip0_457_5019">
<path d="M0 11.5C0 5.42487 4.92487 0.5 11 0.5C17.0751 0.5 22 5.42487 22 11.5C22 17.5751 17.0751 22.5 11 22.5C4.92487 22.5 0 17.5751 0 11.5Z" fill="white"/>
</clipPath>
</defs>
</svg>
