<svg width="34" height="34" viewBox="0 0 34 34" fill="none" xmlns="http://www.w3.org/2000/svg">
<path fill-rule="evenodd" clip-rule="evenodd" d="M17 32.3C25.2014 32.3 31.85 25.45 31.85 17C31.85 8.55004 25.2014 1.7 17 1.7C8.79857 1.7 2.15 8.55004 2.15 17C2.15 25.45 8.79857 32.3 17 32.3ZM17 34C26.1127 34 33.5 26.3888 33.5 17C33.5 7.61116 26.1127 0 17 0C7.8873 0 0.5 7.61116 0.5 17C0.5 26.3888 7.8873 34 17 34Z" fill="#F6F6F6"/>
<path d="M10.3322 12.0357H8.36722C8.34366 12.6417 7.51431 13.6743 6.275 13.6743V15.342C7.33996 15.342 8.03266 14.9348 8.23999 14.6051H8.32952V21.9643H10.3322V12.0357Z" fill="#F6F6F6"/>
<path d="M16.2284 22.1C18.396 22.1 19.9652 20.9026 19.9746 19.2931C19.9652 18.052 19.0416 17.0388 17.8824 16.84V16.7721C18.8908 16.5588 19.607 15.6571 19.6165 14.5712C19.607 13.0344 18.1745 11.9 16.2284 11.9C14.2681 11.9 12.8356 13.0344 12.845 14.5712C12.8356 15.6571 13.5518 16.5588 14.5791 16.7721V16.84C13.401 17.0388 12.4775 18.052 12.4869 19.2931C12.4775 20.9026 14.0419 22.1 16.2284 22.1ZM16.2284 20.5584C15.2529 20.5584 14.5979 19.9718 14.6074 19.1282C14.5979 18.2702 15.2859 17.6496 16.2284 17.6496C17.1567 17.6496 17.84 18.2702 17.8494 19.1282C17.84 19.9718 17.1897 20.5584 16.2284 20.5584ZM16.2284 16.1225C15.4084 16.1225 14.8241 15.5747 14.8336 14.7894C14.8241 14.0185 15.399 13.4804 16.2284 13.4804C17.0436 13.4804 17.6138 14.0185 17.6232 14.7894C17.6138 15.5747 17.0342 16.1225 16.2284 16.1225Z" fill="#F6F6F6"/>
<path d="M27.725 16.2001H25.4066V13.8973H23.828V16.2001H21.5096V17.7999H23.828V20.1027H25.4066V17.7999H27.725V16.2001Z" fill="#F6F6F6"/>
</svg>
