<svg width="63" height="22" viewBox="0 0 63 22" fill="none" xmlns="http://www.w3.org/2000/svg">
<path d="M24.3921 4.51022L13.3831 0.199951L2.37406 4.51022V7.01605H24.3921V4.51022Z" fill="white"/>
<path d="M8.03328 8.67002C8.35986 8.67002 8.62458 8.43454 8.62458 8.14378C8.62458 7.85288 8.35986 7.61753 8.03328 7.61753H4.54188C4.21529 7.61753 3.95065 7.85288 3.95065 8.14378C3.95065 8.43454 4.21529 8.67002 4.54188 8.67002H4.73895V16.1879H4.54188C4.21529 16.1879 3.95065 16.4234 3.95065 16.7141C3.95065 17.0049 4.21529 17.2406 4.54188 17.2406H8.03328C8.35986 17.2406 8.62458 17.0049 8.62458 16.7141C8.62458 16.4234 8.35986 16.1879 8.03328 16.1879H7.83621V8.67002H8.03328Z" fill="white"/>
<path d="M15.1287 8.67002C15.4553 8.67002 15.72 8.43454 15.72 8.14378C15.72 7.85288 15.4553 7.61753 15.1287 7.61753H11.6373C11.3108 7.61753 11.0461 7.85288 11.0461 8.14378C11.0461 8.43454 11.3108 8.67002 11.6373 8.67002H11.8345V16.1879H11.6373C11.3108 16.1879 11.0461 16.4234 11.0461 16.7141C11.0461 17.0049 11.3108 17.2406 11.6373 17.2406H15.1287C15.4553 17.2406 15.72 17.0049 15.72 16.7141C15.72 16.4234 15.4553 16.1879 15.1287 16.1879H14.9316V8.67002H15.1287Z" fill="white"/>
<path d="M22.3368 8.67002C22.6632 8.67002 22.928 8.43454 22.928 8.14378C22.928 7.85288 22.6632 7.61753 22.3368 7.61753H18.8454C18.5187 7.61753 18.254 7.85288 18.254 8.14378C18.254 8.43454 18.5187 8.67002 18.8454 8.67002H19.0424V16.1879H18.8454C18.5187 16.1879 18.254 16.4234 18.254 16.7141C18.254 17.0049 18.5187 17.2406 18.8454 17.2406H22.3368C22.6632 17.2406 22.928 17.0049 22.928 16.7141C22.928 16.4234 22.6632 16.1879 22.3368 16.1879H22.1397V8.67002H22.3368Z" fill="white"/>
<path d="M2.93701 19.145H23.829C24.1388 19.145 24.3921 18.9194 24.3921 18.644V18.343C24.3921 18.0673 24.1388 17.8418 23.829 17.8418H2.93701C2.62737 17.8418 2.37406 18.0673 2.37406 18.343V18.644C2.37406 18.9194 2.62737 19.145 2.93701 19.145Z" fill="white"/>
<path d="M25.2932 19.7464H1.47297C1.16318 19.7464 0.90979 19.9721 0.90979 20.2475V20.6985C0.90979 20.9744 1.16318 21.2 1.47297 21.2H25.2932C25.6029 21.2 25.8562 20.9744 25.8562 20.6985V20.2475C25.8562 19.9721 25.6029 19.7464 25.2932 19.7464Z" fill="white"/>
<path d="M35.1478 7.72282C34.9395 7.47718 34.641 7.30661 34.258 7.20648C34.5564 7.07612 34.7817 6.90602 34.9282 6.69021C35.0746 6.47466 35.1478 6.2441 35.1478 6.0035C35.1478 5.74304 35.069 5.49739 34.9 5.25673C34.7311 5.01633 34.5003 4.84098 34.2074 4.72557C33.9145 4.61029 33.5204 4.55521 33.0361 4.55521H30.6484V10.2238H33.0755C33.4809 10.2238 33.8187 10.1936 34.1004 10.1285C34.382 10.0632 34.6128 9.97324 34.7987 9.84793C34.9844 9.7274 35.1422 9.55211 35.2661 9.32168C35.3956 9.09112 35.4575 8.84528 35.4575 8.57976C35.4575 8.2488 35.3563 7.96336 35.1478 7.72282ZM31.4874 5.2269H32.7658C33.2219 5.2269 33.5485 5.25201 33.7344 5.30689C33.9201 5.36198 34.0666 5.45733 34.1679 5.60271C34.2693 5.74304 34.3201 5.90835 34.3201 6.09885C34.3201 6.29931 34.2637 6.46469 34.1567 6.59506C34.0496 6.72536 33.8864 6.82077 33.6724 6.87572C33.5091 6.9207 33.2387 6.94097 32.8672 6.94097H31.4874V5.2269ZM34.4552 9.06082C34.3708 9.20115 34.2637 9.30653 34.1342 9.37677C34.0046 9.45198 33.8413 9.50215 33.6499 9.53198C33.5372 9.54713 33.3458 9.55703 33.0755 9.55703H31.4874V7.60728H32.9628C33.3684 7.60728 33.678 7.63758 33.892 7.70262C34.106 7.76774 34.275 7.87804 34.3988 8.03345C34.5171 8.18874 34.579 8.37425 34.579 8.58475C34.579 8.76534 34.5397 8.92049 34.4552 9.06082Z" fill="white"/>
<path d="M40.2947 9.7225C40.261 9.55214 40.244 9.14111 40.244 8.49467V7.56737C40.244 7.25667 40.2328 7.04611 40.2046 6.92584C40.1596 6.73043 40.0808 6.57495 39.9625 6.44957C39.8499 6.32439 39.6697 6.21907 39.4219 6.13887C39.1797 6.05376 38.8588 6.01343 38.4646 6.01343C38.0649 6.01343 37.7156 6.06366 37.4172 6.15901C37.1131 6.25927 36.8822 6.39469 36.7246 6.57495C36.5668 6.75548 36.4487 6.99116 36.381 7.28146L37.1469 7.37707C37.2313 7.08126 37.3608 6.88086 37.5354 6.76545C37.7101 6.65017 37.9859 6.59508 38.352 6.59508C38.7461 6.59508 39.0445 6.67535 39.2417 6.83076C39.3881 6.95096 39.4613 7.14637 39.4613 7.43202C39.4613 7.45707 39.4613 7.5172 39.4558 7.61255C39.1572 7.7077 38.6899 7.78816 38.0591 7.85288C37.7494 7.88816 37.5186 7.92325 37.3665 7.95826C37.1581 8.01334 36.9723 8.08863 36.8033 8.18876C36.6343 8.28902 36.4993 8.42444 36.3979 8.58982C36.2966 8.75513 36.2458 8.94065 36.2458 9.14111C36.2458 9.48702 36.3866 9.76768 36.6569 9.98795C36.9328 10.2087 37.3214 10.319 37.8283 10.319C38.1324 10.319 38.4196 10.2738 38.6899 10.1837C38.9602 10.0935 39.2417 9.93805 39.5289 9.71752C39.5514 9.91313 39.6021 10.0833 39.6753 10.2137H40.4918C40.3961 10.0584 40.3284 9.89287 40.2947 9.7225ZM39.4613 8.41946C39.4613 8.7251 39.4219 8.96058 39.3374 9.11626C39.2248 9.32171 39.0559 9.48184 38.8194 9.59732C38.5829 9.71254 38.3126 9.7726 38.0142 9.7726C37.7101 9.7726 37.4791 9.71254 37.3214 9.58729C37.1638 9.46191 37.085 9.30656 37.085 9.12105C37.085 9.00078 37.1188 8.89048 37.1918 8.79042C37.2652 8.69008 37.3665 8.61487 37.5015 8.56464C37.6369 8.50975 37.8622 8.46437 38.1831 8.42444C38.7518 8.35434 39.1797 8.26922 39.4613 8.16358V8.41946Z" fill="white"/>
<path d="M44.3437 7.09126C44.4057 7.2316 44.4338 7.44189 44.4338 7.72761V10.2238H45.2166V7.70262C45.2166 7.38183 45.1997 7.15625 45.1715 7.02615C45.1264 6.82555 45.0476 6.65519 44.9293 6.50981C44.8111 6.36443 44.6365 6.24934 44.4057 6.15898C44.1747 6.06881 43.9157 6.0239 43.6397 6.0239C42.9979 6.0239 42.5079 6.24934 42.17 6.70037V6.11905H41.4661V10.2238H42.2544V7.98329C42.2544 7.45704 42.3727 7.10116 42.6149 6.91067C42.857 6.72535 43.1441 6.63014 43.4765 6.63014C43.6849 6.63014 43.865 6.67027 44.0228 6.75545C44.1747 6.8407 44.2817 6.95093 44.3437 7.09126Z" fill="white"/>
<path d="M50.2396 10.2238L48.3025 7.64256L50.065 6.11905H49.0514L47.1988 7.78814V4.55521H46.416V10.2238H47.1988V8.59498L47.7505 8.12382L49.2768 10.2238H50.2396Z" fill="white"/>
<path d="M30.2036 14.2533H32.3039V19.2552H33.1431V14.2533H35.2492V13.5867H30.2036V14.2533Z" fill="white"/>
<path d="M36.8767 15.1955C36.7246 15.2908 36.5614 15.4811 36.3811 15.772V15.1506H35.6772V19.2552H36.4543V17.105C36.4543 16.8093 36.4994 16.5387 36.5838 16.2932C36.6458 16.1327 36.7414 16.0024 36.8767 15.9125C37.0118 15.822 37.1695 15.7768 37.3384 15.7768C37.5299 15.7768 37.7213 15.827 37.9128 15.9272L38.1832 15.2806C37.9072 15.1302 37.6425 15.0554 37.3779 15.0554C37.1977 15.0554 37.0287 15.1003 36.8767 15.1955Z" fill="white"/>
<path d="M42.4233 18.754C42.3895 18.5836 42.3725 18.1729 42.3725 17.5262V16.5989C42.3725 16.2882 42.3613 16.0776 42.3332 15.9574C42.2881 15.7619 42.2092 15.6064 42.0911 15.4811C41.9784 15.3559 41.7982 15.2508 41.5504 15.1704C41.3083 15.0852 40.9874 15.0453 40.5932 15.0453C40.1933 15.0453 39.8442 15.0952 39.5457 15.1905C39.2416 15.2908 39.0108 15.4262 38.853 15.6064C38.6954 15.787 38.577 16.0227 38.5096 16.3133L39.2754 16.4087C39.3599 16.1127 39.4894 15.9125 39.664 15.7969C39.8385 15.6818 40.1144 15.6266 40.4804 15.6266C40.8746 15.6266 41.1731 15.7068 41.3702 15.8623C41.5167 15.9825 41.5899 16.1779 41.5899 16.4635C41.5899 16.4886 41.5899 16.5487 41.5842 16.644C41.2858 16.7392 40.8184 16.8194 40.1876 16.8845C39.8779 16.9196 39.6471 16.9547 39.4951 16.9898C39.2867 17.0448 39.1008 17.1202 38.9319 17.2203C38.763 17.3206 38.6279 17.4559 38.5265 17.6213C38.4251 17.7869 38.3743 17.9721 38.3743 18.1729C38.3743 18.5185 38.5152 18.7992 38.7855 19.0195C39.0614 19.2403 39.45 19.3505 39.9568 19.3505C40.261 19.3505 40.5481 19.3053 40.8184 19.2151C41.0887 19.125 41.3702 18.9695 41.6574 18.749C41.6857 18.9395 41.7362 19.1099 41.804 19.2452H42.6204C42.5247 19.0899 42.457 18.9244 42.4233 18.754ZM41.5955 17.4459C41.5955 17.7515 41.5562 17.9872 41.4716 18.1425C41.359 18.348 41.19 18.5086 40.9535 18.6236C40.717 18.7391 40.4466 18.7992 40.1482 18.7992C39.8442 18.7992 39.6133 18.7391 39.4557 18.6137C39.2979 18.4883 39.2191 18.3331 39.2191 18.1478C39.2191 18.0274 39.2529 17.9171 39.3261 17.8168C39.3993 17.7165 39.5006 17.6414 39.6358 17.5912C39.7709 17.5361 39.9962 17.4909 40.3171 17.4509C40.8858 17.3807 41.3139 17.2955 41.5955 17.1904V17.4459Z" fill="white"/>
<path d="M47.0634 15.5413C46.9451 15.3959 46.7706 15.2806 46.5397 15.1905C46.3089 15.1003 46.0498 15.0554 45.7739 15.0554C45.1319 15.0554 44.642 15.2806 44.3041 15.7319V15.1506H43.6003V19.2601H44.3886V17.0199C44.3886 16.4938 44.5068 16.1377 44.7491 15.9474C44.9911 15.7619 45.2783 15.6666 45.6105 15.6666C45.8189 15.6666 45.9991 15.7068 46.1568 15.792C46.3089 15.8772 46.4159 15.9875 46.4777 16.1278C46.5397 16.2681 46.5679 16.4787 46.5679 16.7643V19.2601H47.3506V16.7341C47.3506 16.4134 47.3337 16.1879 47.3055 16.0577C47.2605 15.8571 47.1817 15.6867 47.0634 15.5413Z" fill="white"/>
<path d="M51.3601 17.0852C51.1405 17.0049 50.752 16.8944 50.2 16.7643C49.8171 16.6741 49.5864 16.614 49.5075 16.589C49.3723 16.5387 49.2709 16.4787 49.209 16.4034C49.1472 16.3282 49.1133 16.248 49.1133 16.1579C49.1133 16.0175 49.1921 15.8921 49.3441 15.787C49.5018 15.6818 49.7553 15.6266 50.1156 15.6266C50.4196 15.6266 50.6507 15.6818 50.8197 15.802C50.9885 15.9224 51.0899 16.0875 51.1236 16.2982L51.8894 16.2031C51.8387 15.9375 51.7487 15.7268 51.6192 15.5663C51.4839 15.411 51.2869 15.2858 51.011 15.1905C50.7407 15.0952 50.4196 15.0502 50.0594 15.0502C49.8171 15.0502 49.5919 15.0804 49.3835 15.1354C49.1752 15.1955 49.0119 15.2608 48.888 15.3411C48.7247 15.4461 48.6009 15.5766 48.5051 15.7319C48.4093 15.8873 48.3643 16.0526 48.3643 16.2381C48.3643 16.4385 48.4207 16.624 48.5333 16.7894C48.6459 16.9547 48.8148 17.0852 49.0343 17.1803C49.2597 17.2755 49.6538 17.3858 50.2283 17.516C50.6562 17.6114 50.9209 17.6914 51.0279 17.7515C51.18 17.8418 51.2587 17.9672 51.2587 18.1227C51.2587 18.2978 51.1743 18.4483 50.9997 18.5786C50.8252 18.7088 50.5605 18.7741 50.2 18.7741C49.8397 18.7741 49.5637 18.6989 49.3667 18.5536C49.1696 18.4032 49.0513 18.1927 49.0063 17.9171L48.2348 18.0274C48.3192 18.4632 48.522 18.794 48.8318 19.0195C49.1414 19.2403 49.6031 19.3505 50.2 19.3505C50.5605 19.3505 50.8871 19.2904 51.1743 19.1799C51.4614 19.0697 51.6811 18.9095 51.8332 18.704C51.9796 18.4984 52.0584 18.2779 52.0584 18.0475C52.0584 17.8068 51.9965 17.6114 51.8725 17.4509C51.7487 17.2908 51.5797 17.1703 51.3601 17.0852Z" fill="white"/>
<path d="M54.1194 14.2533C54.2152 14.1631 54.384 14.1179 54.6206 14.1179C54.7669 14.1179 54.9191 14.1331 55.0823 14.1581L55.2005 13.5516C54.9303 13.5064 54.6881 13.4815 54.4685 13.4815C54.125 13.4815 53.8604 13.5415 53.6689 13.652C53.4774 13.767 53.3422 13.9125 53.2691 14.0928C53.2127 14.2281 53.1846 14.4337 53.1846 14.7092V15.1453H52.492V15.6867H53.179V19.2502H53.9729V15.6867H54.874V15.1405H53.9729V14.7594C53.9729 14.514 54.0237 14.3436 54.1194 14.2533Z" fill="white"/>
<path d="M59.4467 17.1904C59.4467 16.5137 59.2496 15.9875 58.8611 15.6117C58.4725 15.2357 57.9712 15.0502 57.3519 15.0502C56.7155 15.0502 56.1975 15.2407 55.7977 15.6216C55.3978 16.0024 55.2007 16.5387 55.2007 17.2304C55.2007 17.9019 55.3978 18.4183 55.7919 18.7891C56.1862 19.16 56.7212 19.3454 57.3969 19.3454C57.9375 19.3454 58.3768 19.2301 58.7202 18.9996C59.0638 18.7691 59.3004 18.4433 59.4299 18.0224L58.6245 17.932C58.5063 18.2226 58.343 18.4383 58.1234 18.5735C57.9207 18.7088 57.6785 18.7741 57.3913 18.7741C57.0083 18.7741 56.6874 18.6539 56.4284 18.4133C56.175 18.1729 56.0284 17.8267 56.0004 17.3759H59.441C59.4467 17.2955 59.4467 17.2304 59.4467 17.1904ZM56.0567 16.8045C56.0849 16.4484 56.2199 16.1627 56.4622 15.9474C56.7099 15.7319 57.0083 15.6266 57.3687 15.6266C57.7629 15.6266 58.0896 15.7619 58.3373 16.0274C58.495 16.198 58.5963 16.4585 58.6302 16.8045H56.0567Z" fill="white"/>
<path d="M61.6033 15.1955C61.4514 15.2908 61.288 15.4811 61.1078 15.772V15.1506H60.404V19.2552H61.181V17.105C61.181 16.8093 61.226 16.5387 61.3106 16.2932C61.3725 16.1327 61.4683 16.0024 61.6033 15.9125C61.7385 15.822 61.8963 15.7768 62.0652 15.7768C62.2566 15.7768 62.4481 15.827 62.6395 15.9272L62.9098 15.2806C62.6339 15.1302 62.3692 15.0554 62.1046 15.0554C61.9243 15.0554 61.7555 15.1003 61.6033 15.1955Z" fill="white"/>
</svg>
