<svg width="27" height="34" viewBox="0 0 27 34" fill="none" xmlns="http://www.w3.org/2000/svg">
<g clip-path="url(#clip0_134_1961)">
<path d="M0.5 10.7705V18.9768C0.5 18.9944 0.5 19.0295 0.5 19.0471C0.5 19.135 0.5 19.2228 0.5 19.3283C0.5 26.2518 6.32633 31.875 13.5 31.875C20.6737 31.875 26.5 26.2518 26.5 19.3283C26.5 19.2404 26.5 19.1525 26.5 19.0471C26.5 19.0295 26.5 18.9944 26.5 18.9768V10.7705H0.5Z" fill="#A11E29"/>
<path d="M26.4818 9.99747V4.2337C26.4818 3.07391 25.4986 2.125 24.2969 2.125H2.68487C1.48319 2.125 0.5 3.07391 0.5 4.2337V9.9799H26.4818V9.99747Z" fill="#A11E29"/>
<path d="M3.95521 8.51069V7.66929L3.62354 8.29586H3.47613L3.14446 7.66929V8.51069H2.8865V7.22174H3.16289L3.54984 7.95572L3.93678 7.22174H4.21317V8.51069H3.95521Z" fill="white"/>
<path d="M4.85805 7.22174H5.09759L5.59509 8.49278H5.33713L5.20815 8.17055H4.7475L4.61852 8.49278H4.36055L4.85805 7.22174ZM5.15287 8.00943L4.96861 7.50817L4.78435 8.00943H5.15287Z" fill="white"/>
<path d="M6.00045 7.68719V8.51069H5.74248V7.22174H5.94517L6.62693 8.06314V7.22174H6.88489V8.51069H6.66378L6.00045 7.68719Z" fill="white"/>
<path d="M7.52998 7.22174H7.75109L8.24859 8.49278H7.99063L7.86165 8.18845H7.401L7.27202 8.51069H7.01405L7.52998 7.22174ZM7.8248 8.00943L7.64054 7.50817L7.45627 8.00943H7.8248Z" fill="white"/>
<path d="M9.26157 8.36747C9.15101 8.47488 9.04046 8.52859 8.89305 8.52859C8.80092 8.52859 8.72722 8.51069 8.65351 8.47488C8.57981 8.43908 8.5061 8.40328 8.45082 8.33167C8.39555 8.27796 8.35869 8.20635 8.32184 8.11684C8.28499 8.04523 8.26656 7.95572 8.26656 7.86621C8.26656 7.7767 8.28499 7.68719 8.32184 7.61558C8.35869 7.54398 8.39555 7.47237 8.45082 7.41866C8.5061 7.36496 8.57981 7.31125 8.65351 7.27545C8.72722 7.23964 8.81935 7.22174 8.91148 7.22174C9.04046 7.22174 9.13259 7.23964 9.22472 7.29335C9.31685 7.34705 9.37213 7.41866 9.42741 7.49027L9.24315 7.63349C9.20629 7.56188 9.16944 7.52607 9.09574 7.49027C9.04046 7.45447 8.96675 7.43656 8.89305 7.43656C8.83777 7.43656 8.78249 7.45447 8.74564 7.47237C8.69036 7.49027 8.65351 7.52607 8.63509 7.56188C8.59823 7.59768 8.57981 7.65139 8.56138 7.7051C8.54295 7.7588 8.54295 7.81251 8.54295 7.86621C8.54295 7.91992 8.56138 7.97363 8.57981 8.02733C8.59823 8.08104 8.63509 8.11684 8.65351 8.17055C8.69036 8.20635 8.72722 8.24216 8.78249 8.26006C8.83777 8.27796 8.87462 8.29586 8.9299 8.29586C9.05888 8.29586 9.16944 8.24216 9.28 8.11684V8.02733H9.02203V7.84831H9.50111V8.51069H9.29842V8.36747H9.26157Z" fill="white"/>
<path d="M10.6072 8.29586V8.51069H9.70429V7.22174H10.5887V7.45447H9.96225V7.7588H10.515V7.95572H9.96225V8.29586H10.6072Z" fill="white"/>
<path d="M11.8969 8.51069V7.66929L11.5468 8.29586H11.4178L11.0677 7.66929V8.51069H10.8097V7.22174H11.0861L11.4731 7.95572L11.8785 7.22174H12.1364V8.51069H11.8969Z" fill="white"/>
<path d="M13.3341 8.29586V8.51069H12.4128V7.22174H13.3156V7.45447H12.6707V7.7588H13.2235V7.95572H12.6707V8.29586H13.3341Z" fill="white"/>
<path d="M13.795 7.68719V8.51069H13.537V7.22174H13.7397L14.4215 8.06314V7.22174H14.6794V8.51069H14.4583L13.795 7.68719Z" fill="white"/>
<path d="M15.9324 7.45447H15.5086V8.51069H15.2506V7.45447H14.8452V7.22174H15.9324V7.45447Z" fill="white"/>
<path d="M17.2773 7.56172C17.2773 7.56172 17.2589 7.54381 17.222 7.52591C17.2036 7.50801 17.1667 7.49011 17.1299 7.49011C17.093 7.49011 17.0562 7.4722 17.0193 7.4543C16.9825 7.4364 16.9456 7.4364 16.9088 7.4364C16.8351 7.4364 16.7798 7.4543 16.7429 7.4722C16.7245 7.50801 16.7061 7.54381 16.7061 7.57962C16.7061 7.59752 16.7061 7.63332 16.7245 7.65123C16.7429 7.66913 16.7614 7.68703 16.7798 7.70493C16.7982 7.72283 16.8351 7.72283 16.8719 7.74074C16.9088 7.75864 16.9456 7.75864 17.0009 7.77654C17.0562 7.79444 17.1299 7.81234 17.1852 7.83025C17.2404 7.84815 17.2773 7.86605 17.3141 7.90185C17.351 7.93766 17.3878 7.97346 17.4063 8.00927C17.4247 8.04507 17.4431 8.09878 17.4431 8.15248C17.4431 8.22409 17.4247 8.2778 17.4063 8.3315C17.3878 8.38521 17.351 8.42102 17.2957 8.45682C17.2589 8.49262 17.2036 8.51053 17.1483 8.52843C17.093 8.54633 17.0193 8.54633 16.9641 8.54633C16.8719 8.54633 16.7614 8.52843 16.6692 8.51053C16.5771 8.47472 16.485 8.43892 16.4113 8.38521L16.5218 8.17039C16.5403 8.18829 16.5587 8.18829 16.5771 8.20619C16.614 8.22409 16.6324 8.24199 16.6877 8.2599C16.7245 8.2778 16.7798 8.2957 16.8166 8.2957C16.8719 8.3136 16.9088 8.3136 16.9641 8.3136C17.1115 8.3136 17.1667 8.2778 17.1667 8.18829C17.1667 8.15248 17.1667 8.13458 17.1483 8.11668C17.1299 8.09878 17.1115 8.08088 17.0746 8.06297C17.0378 8.04507 17.0009 8.02717 16.9641 8.02717C16.9272 8.00927 16.8719 8.00927 16.8166 7.99136C16.7614 7.97346 16.7061 7.95556 16.6508 7.93766C16.5955 7.91976 16.5587 7.90185 16.5403 7.86605C16.5034 7.83025 16.485 7.81234 16.4666 7.77654C16.4481 7.74074 16.4481 7.70493 16.4481 7.65123C16.4481 7.57962 16.4666 7.52591 16.485 7.4722C16.5034 7.4185 16.5403 7.38269 16.5955 7.34689C16.6324 7.31109 16.6877 7.29318 16.7429 7.27528C16.7982 7.25738 16.8719 7.25738 16.9272 7.25738C17.0193 7.25738 17.1115 7.27528 17.1852 7.29318C17.2589 7.32899 17.3326 7.34689 17.3878 7.4006L17.2773 7.56172Z" fill="white"/>
<path d="M17.7557 7.22174L18.069 7.84831L18.4006 7.22174H18.677L18.198 8.06314V8.51069H17.94V8.06314L17.4794 7.22174H17.7557Z" fill="white"/>
<path d="M19.5807 7.56172C19.5807 7.56172 19.5622 7.54381 19.5254 7.52591C19.507 7.50801 19.4701 7.49011 19.4333 7.49011C19.3964 7.49011 19.3596 7.4722 19.3227 7.4543C19.2859 7.4364 19.249 7.4364 19.2121 7.4364C19.1384 7.4364 19.0832 7.4543 19.0463 7.4722C19.0095 7.49011 18.991 7.52591 18.991 7.57962C18.991 7.59752 18.991 7.63332 19.0095 7.65123C19.0279 7.66913 19.0463 7.68703 19.0647 7.70493C19.0832 7.72283 19.12 7.72283 19.1569 7.74074C19.1937 7.75864 19.2306 7.75864 19.2859 7.77654C19.3411 7.79444 19.4148 7.81234 19.4701 7.83025C19.5254 7.84815 19.5622 7.86605 19.5991 7.90185C19.6359 7.93766 19.6728 7.97346 19.6912 8.00927C19.7097 8.04507 19.7281 8.09878 19.7281 8.15248C19.7281 8.22409 19.7097 8.2778 19.6912 8.3315C19.6728 8.38521 19.6359 8.42102 19.5807 8.45682C19.5438 8.49262 19.4885 8.51053 19.4333 8.52843C19.378 8.54633 19.3043 8.54633 19.249 8.54633C19.1569 8.54633 19.0463 8.52843 18.9542 8.51053C18.8621 8.47472 18.7699 8.43892 18.6962 8.38521L18.8068 8.17039C18.8252 8.18829 18.8436 8.18829 18.8621 8.20619C18.8989 8.22409 18.9173 8.24199 18.9726 8.2599C19.0095 8.2778 19.0647 8.2957 19.1016 8.2957C19.1569 8.3136 19.1937 8.3136 19.249 8.3136C19.3964 8.3136 19.4517 8.2778 19.4517 8.18829C19.4517 8.15248 19.4517 8.13458 19.4333 8.11668C19.4148 8.09878 19.3964 8.08088 19.3596 8.06297C19.3227 8.04507 19.2859 8.02717 19.249 8.02717C19.2122 8.00927 19.1569 8.00927 19.1016 7.99136C19.0463 7.97346 18.991 7.95556 18.9358 7.93766C18.8805 7.91976 18.8436 7.90185 18.8252 7.86605C18.7884 7.83025 18.7699 7.81234 18.7515 7.77654C18.7331 7.74074 18.7331 7.70493 18.7331 7.65123C18.7331 7.57962 18.7515 7.52591 18.7699 7.4722C18.7884 7.4185 18.8252 7.38269 18.8805 7.34689C18.9173 7.31109 18.9726 7.29318 19.0279 7.27528C19.0832 7.25738 19.1569 7.25738 19.2121 7.25738C19.3043 7.25738 19.3964 7.27528 19.4701 7.29318C19.5438 7.32899 19.6175 7.34689 19.6728 7.4006L19.5807 7.56172Z" fill="white"/>
<path d="M20.9071 7.45447H20.4833V8.51069H20.2253V7.45447H19.8015V7.22174H20.9071V7.45447Z" fill="white"/>
<path d="M21.9758 8.29586V8.51069H21.0729V7.22174H21.9573V7.45447H21.3309V7.7588H21.8836V7.95572H21.3309V8.29586H21.9758Z" fill="white"/>
<path d="M23.2471 8.51069V7.66929L22.9154 8.29586H22.7864L22.4363 7.66929V8.51069H22.1784V7.22174H22.4548L22.8417 7.95572L23.2471 7.22174H23.505V8.51069H23.2471Z" fill="white"/>
<path d="M18.9172 24.3L18.4381 24.7655C18.4565 25.6785 18.2354 26.6094 17.7563 27.415C16.835 28.9546 15.1214 29.9213 13.2788 29.9213C11.4362 29.9213 9.7226 28.9546 8.8013 27.415C7.88 25.8754 7.88 23.942 8.8013 22.4024C9.7226 20.8628 11.4362 19.8961 13.2788 19.8961C14.6976 19.8961 16.0243 20.469 17.0009 21.4357L17.351 21.0955C16.2823 20.0393 14.8266 19.4128 13.2604 19.4128C11.2335 19.4128 9.33565 20.469 8.32222 22.1697C7.30879 23.8704 7.30879 26.0007 8.32222 27.7014C9.33565 29.4021 11.2335 30.4583 13.2604 30.4583C15.2873 30.4583 17.1851 29.4021 18.1986 27.7014C18.8251 26.6631 19.0646 25.4637 18.9172 24.3Z" fill="white"/>
<path d="M19.488 20.1287L17.885 21.6683L17.7191 21.8473L13.7207 25.7321L11.1042 23.19L9.77752 24.461L13.7207 28.2921L17.9771 24.1567L20.8147 21.4177V21.3998L19.488 20.1287Z" fill="white"/>
<path d="M11.639 14.9017C11.51 15.0091 11.3441 15.0628 11.1415 15.0807H11.0862V15.5641H11.1599C11.4915 15.5462 11.7864 15.4566 12.0259 15.2776C12.2839 15.0807 12.4681 14.8122 12.5603 14.4541C12.5603 14.4183 12.5234 14.3825 12.4866 14.3825L12.1549 14.293C12.0628 14.2751 11.9706 14.3288 11.9522 14.4004C11.9153 14.5436 11.8232 14.7406 11.639 14.9017Z" fill="white"/>
<path d="M11.639 12.8027C11.51 12.6953 11.3441 12.6416 11.1415 12.6237H11.0862V12.1404H11.1599C11.4915 12.1583 11.7864 12.2478 12.0259 12.4268C12.2839 12.6237 12.4681 12.8923 12.5603 13.2503C12.5603 13.2861 12.5234 13.3219 12.4866 13.3219L12.1549 13.4114C12.0628 13.4293 11.9706 13.3756 11.9522 13.304C11.9153 13.1608 11.8232 12.9818 11.639 12.8027Z" fill="white"/>
<path d="M13.4813 15.5819H13.7393V12.1268H13.4813C13.297 12.1268 13.1496 12.27 13.1496 12.449V15.2418C13.1496 15.4387 13.297 15.5819 13.4813 15.5819Z" fill="white"/>
<path d="M3.21817 15.5819H3.47613V12.1268H3.21817C3.03391 12.1268 2.8865 12.27 2.8865 12.449V15.2418C2.8865 15.4387 3.03391 15.5819 3.21817 15.5819Z" fill="white"/>
<path d="M5.52149 12.6774C5.44779 12.5342 5.35566 12.4089 5.22667 12.3373C5.09769 12.2478 4.95028 12.1941 4.78445 12.1762C4.65547 12.1583 4.48963 12.1404 4.2501 12.1404H3.64204V12.6595H4.28695C4.48963 12.6595 4.61862 12.6774 4.69232 12.6953C4.80288 12.7311 4.87658 12.7848 4.95028 12.8744C5.00556 12.9639 5.04241 13.0713 5.04241 13.1966C5.04241 13.3756 4.98714 13.5009 4.87658 13.5904C4.76602 13.6799 4.58176 13.7337 4.30537 13.7337H3.66046V14.2528H4.30537C4.80288 14.2528 5.15297 14.1454 5.35566 13.9306C5.55834 13.7158 5.65047 13.4651 5.65047 13.1787C5.63205 12.9818 5.59519 12.8206 5.52149 12.6774Z" fill="white"/>
<path d="M8.65371 13.5412H6.97694V14.0603H8.32204C8.5063 14.0603 8.65371 13.9171 8.65371 13.7381V13.5412Z" fill="white"/>
<path d="M8.48788 12.1268H6.97694V12.646H8.81955V12.449C8.81955 12.27 8.67214 12.1268 8.48788 12.1268Z" fill="white"/>
<path d="M6.97694 15.582H8.48788C8.67214 15.582 8.81955 15.4388 8.81955 15.2598V15.0629H6.97694V15.582Z" fill="white"/>
<path d="M6.55316 15.5819H6.81112V12.1268H6.55316C6.3689 12.1268 6.22149 12.27 6.22149 12.449V15.2418C6.22149 15.4387 6.3689 15.5819 6.55316 15.5819Z" fill="white"/>
<path d="M10.2203 12.3194C9.9623 12.4626 9.75962 12.6595 9.61221 12.9102C9.4648 13.1608 9.40952 13.4651 9.40952 13.8232C9.40952 14.1454 9.4648 14.4318 9.59378 14.7183C9.72277 15.0047 9.90703 15.2195 10.1466 15.3627C10.3308 15.4702 10.5704 15.5418 10.8468 15.5776H10.9205V15.0763H10.8652C10.7362 15.0584 10.6072 15.0047 10.4967 14.951C10.3308 14.8615 10.2018 14.7183 10.1281 14.5213C10.0544 14.3244 9.99916 14.0917 9.99916 13.8232C9.99916 13.6262 10.036 13.4114 10.1097 13.2324C10.1834 13.0534 10.294 12.8923 10.4598 12.7848C10.5704 12.7132 10.7178 12.6595 10.8652 12.6416H10.9205V12.1404H10.8468C10.6256 12.1583 10.423 12.2299 10.2203 12.3194Z" fill="white"/>
<path d="M15.6738 14.0022C15.5817 13.8769 15.4527 13.7874 15.3053 13.7337C15.4158 13.662 15.508 13.5725 15.5633 13.483C15.6554 13.3398 15.6922 13.1966 15.6922 13.0534C15.6922 12.8923 15.637 12.7311 15.5448 12.5879C15.4527 12.4447 15.3053 12.3194 15.1395 12.2478C14.9736 12.1762 14.7525 12.1404 14.4761 12.1404H13.8865V12.6595H14.3287C14.5682 12.6595 14.7341 12.6774 14.8262 12.6953C14.9183 12.7132 14.9736 12.7669 15.0289 12.8385C15.0842 12.9102 15.1026 12.9997 15.1026 13.0892C15.1026 13.1966 15.0842 13.2682 15.0289 13.3398C14.9736 13.4114 14.8999 13.4472 14.8078 13.483C14.7341 13.5009 14.5867 13.5188 14.4024 13.5188H13.9049V14.038H14.4577C14.6604 14.038 14.8262 14.0559 14.9368 14.0917C15.0473 14.1275 15.121 14.1812 15.1763 14.2528C15.2316 14.3423 15.2684 14.4318 15.2684 14.5392C15.2684 14.6288 15.25 14.7183 15.2132 14.7899C15.1763 14.8615 15.121 14.9152 15.0657 14.951C15.0105 14.9868 14.9183 15.0226 14.8262 15.0405C14.7709 15.0584 14.6788 15.0584 14.5314 15.0584H13.9233V15.5776H14.5314C14.7525 15.5776 14.9368 15.5597 15.1026 15.5239C15.2684 15.4881 15.3974 15.4343 15.508 15.3448C15.6185 15.2732 15.7107 15.1479 15.7844 15.0047C15.8581 14.8615 15.8949 14.7004 15.8949 14.5392C15.8581 14.3423 15.8028 14.1633 15.6738 14.0022Z" fill="white"/>
<path d="M6.86608 17.5332C6.86608 17.4437 6.8845 17.3363 6.92135 17.2468C6.95821 17.1573 7.01348 17.0678 7.08719 16.9961C7.16089 16.9245 7.2346 16.8529 7.34515 16.8171C7.43728 16.7634 7.56626 16.7455 7.69525 16.7455C7.84265 16.7455 7.97164 16.7813 8.08219 16.835C8.19275 16.9066 8.26645 16.9782 8.32173 17.0857L8.08219 17.2468C8.06377 17.1931 8.02691 17.1573 8.00849 17.1394C7.99006 17.1215 7.95321 17.0857 7.91636 17.0678C7.87951 17.0499 7.84265 17.0319 7.8058 17.0319C7.76895 17.0319 7.7321 17.014 7.69525 17.014C7.62154 17.014 7.54784 17.0319 7.49256 17.0678C7.43728 17.1036 7.382 17.1394 7.34515 17.1931C7.3083 17.2468 7.27145 17.3005 7.25302 17.3721C7.2346 17.4437 7.21617 17.4974 7.21617 17.569C7.21617 17.6406 7.2346 17.7122 7.25302 17.7659C7.27145 17.8196 7.3083 17.8913 7.34515 17.945C7.382 17.9987 7.43728 18.0345 7.49256 18.0703C7.54784 18.1061 7.62154 18.124 7.69525 18.124C7.7321 18.124 7.76895 18.124 7.8058 18.1061C7.84265 18.0882 7.87951 18.0882 7.91636 18.0703C7.95321 18.0524 7.99006 18.0345 8.00849 17.9987C8.04534 17.9629 8.06377 17.9271 8.08219 17.8913L8.34016 18.0345C8.32173 18.0882 8.28488 18.1419 8.2296 18.1956C8.17432 18.2493 8.11904 18.2851 8.06377 18.303C8.00849 18.3388 7.93478 18.3567 7.86108 18.3746C7.78738 18.3925 7.7321 18.3925 7.65839 18.3925C7.54784 18.3925 7.43728 18.3746 7.32673 18.3209C7.2346 18.2672 7.14247 18.2135 7.06876 18.124C6.99506 18.0345 6.93978 17.9629 6.90293 17.8554C6.8845 17.748 6.86608 17.6406 6.86608 17.5332Z" fill="white"/>
<path d="M9.86942 18.0838V18.3524H8.72701V16.7591H9.85099V17.0276H9.04025V17.4215H9.74044V17.6721H9.04025V18.0838H9.86942Z" fill="white"/>
<path d="M10.2747 16.7591H11.0117C11.0854 16.7591 11.1591 16.777 11.2144 16.8128C11.2697 16.8486 11.325 16.8844 11.3803 16.9381C11.4355 16.9918 11.454 17.0455 11.4908 17.1171C11.5092 17.1887 11.5277 17.2425 11.5277 17.3141C11.5277 17.4215 11.5092 17.511 11.454 17.6005C11.3987 17.69 11.325 17.7437 11.2328 17.7795L11.6014 18.3882H11.2328L10.9012 17.8511H10.5879V18.3882H10.2747V16.7591ZM10.9933 17.5468C11.0302 17.5468 11.0486 17.5468 11.067 17.5289C11.0854 17.511 11.1223 17.4931 11.1407 17.4752C11.1591 17.4573 11.1776 17.4215 11.1776 17.3857C11.196 17.3499 11.196 17.3141 11.196 17.2783C11.196 17.2425 11.196 17.2066 11.1776 17.1708C11.1591 17.135 11.1407 17.1171 11.1223 17.0813C11.1039 17.0634 11.0854 17.0455 11.0486 17.0276C11.0302 17.0097 10.9933 17.0097 10.9749 17.0097H10.5879V17.5468H10.9933Z" fill="white"/>
<path d="M13.1867 17.0276H12.6523V18.3524H12.3391V17.0276H11.8047V16.7591H13.1682V17.0276H13.1867Z" fill="white"/>
<path d="M13.5552 18.3524V16.7591H13.8684V18.3524H13.5552Z" fill="white"/>
<path d="M14.3846 18.3524V16.7591H15.4902V17.0276H14.6979V17.4394H15.3612V17.69H14.6979V18.3524H14.3846Z" fill="white"/>
<path d="M15.8766 18.3524V16.7591H16.1898V18.3524H15.8766Z" fill="white"/>
<path d="M17.8483 18.0838V18.3524H16.7058V16.7591H17.8298V17.0276H17.0191V17.4215H17.7193V17.6721H17.0191V18.0838H17.8483Z" fill="white"/>
<path d="M18.2536 18.3524V16.7591H18.8432C18.9722 16.7591 19.1012 16.777 19.1933 16.8307C19.2854 16.8844 19.3775 16.9381 19.4512 17.0097C19.525 17.0813 19.5618 17.1708 19.5987 17.2604C19.6355 17.3499 19.6539 17.4573 19.6539 17.5647C19.6539 17.69 19.6355 17.7974 19.5987 17.8869C19.5618 17.9764 19.5065 18.0659 19.4328 18.1376C19.3591 18.2092 19.2854 18.2629 19.1749 18.2987C19.0827 18.3345 18.9722 18.3524 18.8432 18.3524H18.2536ZM19.3407 17.5468C19.3407 17.4752 19.3223 17.4036 19.3038 17.332C19.2854 17.2604 19.2486 17.2066 19.2117 17.1708C19.1749 17.1171 19.1196 17.0813 19.0643 17.0634C19.009 17.0455 18.9353 17.0276 18.8616 17.0276H18.5852V18.0838H18.8616C18.9353 18.0838 19.009 18.0659 19.0643 18.048C19.1196 18.0122 19.1749 17.9764 19.2117 17.9406C19.2486 17.9048 19.2854 17.8332 19.3038 17.7795C19.3407 17.69 19.3407 17.6184 19.3407 17.5468Z" fill="white"/>
<path d="M3.12586 5.87893H2.79419V4.28564H3.12586V5.87893Z" fill="white"/>
<path d="M4.21283 5.46302C4.21283 5.39141 4.19441 5.3556 4.15756 5.3198C4.1207 5.284 4.06543 5.24819 3.9733 5.21239C3.80746 5.15868 3.69691 5.08707 3.6232 4.99756C3.5495 4.90805 3.51265 4.81854 3.51265 4.71113C3.51265 4.58581 3.56792 4.4605 3.66005 4.38889C3.75218 4.31728 3.88117 4.26358 4.02857 4.26358C4.1207 4.26358 4.21283 4.28148 4.30496 4.31728C4.37867 4.35309 4.45237 4.4247 4.48922 4.4963C4.52608 4.56791 4.5445 4.65742 4.5445 4.74693H4.21283C4.21283 4.67533 4.19441 4.62162 4.15756 4.58581C4.1207 4.55001 4.08385 4.53211 4.01015 4.53211C3.95487 4.53211 3.89959 4.55001 3.88117 4.58581C3.84431 4.62162 3.82589 4.65742 3.82589 4.71113C3.82589 4.74693 3.84431 4.80064 3.88117 4.83644C3.91802 4.87225 3.9733 4.90805 4.06543 4.94386C4.23126 4.99756 4.34181 5.06917 4.41552 5.15868C4.48922 5.24819 4.52607 5.3377 4.52607 5.46302C4.52607 5.60623 4.48922 5.71365 4.39709 5.78525C4.30496 5.85686 4.17598 5.91057 4.02857 5.91057C3.91802 5.91057 3.82589 5.89267 3.73376 5.83896C3.64163 5.80316 3.58635 5.73155 3.53107 5.65994C3.47579 5.58833 3.45737 5.48092 3.45737 5.37351H3.80746C3.80746 5.46302 3.82589 5.53462 3.86274 5.57043C3.89959 5.60623 3.95487 5.62414 4.047 5.62414C4.15756 5.62414 4.21283 5.57043 4.21283 5.46302Z" fill="white"/>
<path d="M6.05583 5.21239C6.05583 5.42721 6.00055 5.58833 5.90842 5.71364C5.81629 5.83896 5.66889 5.89267 5.48463 5.89267C5.30036 5.89267 5.15296 5.83896 5.0424 5.71364C4.93184 5.58833 4.87657 5.42721 4.87657 5.23029V4.96176C4.87657 4.74693 4.93184 4.56791 5.02397 4.4426C5.13453 4.31728 5.28194 4.26358 5.4662 4.26358C5.65046 4.26358 5.79787 4.31728 5.89 4.4426C5.98213 4.56791 6.05583 4.72903 6.05583 4.94386V5.21239ZM5.72416 4.94386C5.72416 4.80064 5.70574 4.69323 5.66889 4.62162C5.61361 4.56791 5.5399 4.53211 5.4662 4.53211C5.37407 4.53211 5.31879 4.56791 5.26351 4.63952C5.22666 4.71113 5.20823 4.80064 5.18981 4.94386V5.23029C5.18981 5.37351 5.20823 5.46302 5.24509 5.53462C5.28194 5.60623 5.35564 5.64204 5.44777 5.64204C5.5399 5.64204 5.59518 5.60623 5.63203 5.55253C5.66888 5.48092 5.68731 5.39141 5.68731 5.24819V4.94386H5.72416Z" fill="white"/>
<path d="M6.51626 6.00424H6.27672L6.77422 4.28564H7.01376L6.51626 6.00424Z" fill="white"/>
<path d="M7.64001 5.87893H7.30834V4.28564H7.64001V5.87893Z" fill="white"/>
<path d="M8.89326 5.18075H8.37733V5.61039H8.98539V5.87893H8.04567V4.28564H8.98539V4.55417H8.37733V4.93012H8.89326V5.18075Z" fill="white"/>
<path d="M10.4042 5.3377C10.4042 5.51672 10.3489 5.65994 10.2383 5.74945C10.1278 5.83896 9.99878 5.89267 9.83295 5.89267C9.64869 5.89267 9.50128 5.83896 9.40915 5.71364C9.31702 5.58833 9.26174 5.42721 9.26174 5.21239V4.94386C9.26174 4.72903 9.31702 4.55001 9.40915 4.4426C9.51971 4.31728 9.64869 4.26358 9.83295 4.26358C10.0172 4.26358 10.1462 4.31728 10.2383 4.40679C10.3305 4.4963 10.3857 4.63952 10.4042 4.81854H10.0725C10.0725 4.71113 10.0541 4.62162 10.0172 4.58581C9.98036 4.55001 9.92508 4.51421 9.83295 4.51421C9.74082 4.51421 9.68554 4.55001 9.64869 4.60372C9.61184 4.65742 9.59341 4.76484 9.59341 4.90805V5.21239C9.59341 5.37351 9.61184 5.48092 9.64869 5.53462C9.68554 5.58833 9.74082 5.62413 9.83295 5.62413C9.92508 5.62413 9.98036 5.60623 10.0172 5.57043C10.0541 5.53462 10.0725 5.46302 10.0725 5.3556H10.4042V5.3377Z" fill="white"/>
<path d="M12.3205 5.87476H11.3623V5.65994L11.8045 5.10497C11.8598 5.03337 11.8967 4.96176 11.9335 4.90805C11.952 4.85435 11.9704 4.80064 11.9704 4.74693C11.9704 4.67532 11.952 4.62162 11.9335 4.58581C11.9151 4.55001 11.8783 4.53211 11.823 4.53211C11.7677 4.53211 11.7308 4.55001 11.694 4.60372C11.6571 4.65742 11.6571 4.71113 11.6571 4.80064H11.3439C11.3439 4.71113 11.3623 4.62162 11.3992 4.53211C11.436 4.4426 11.4913 4.38889 11.5834 4.33519C11.6571 4.28148 11.7493 4.26358 11.8414 4.26358C11.9888 4.26358 12.0994 4.29938 12.1731 4.38889C12.2468 4.4784 12.2836 4.56791 12.2836 4.71113C12.2836 4.80064 12.2652 4.89015 12.2099 4.97966C12.1731 5.06917 12.0809 5.17658 11.9704 5.3198L11.7677 5.60623H12.3205V5.87476Z" fill="white"/>
<path d="M13.6104 4.46466L13.0945 5.87893H12.7629L13.2788 4.53627H12.6154V4.28564H13.6104V4.46466Z" fill="white"/>
<path d="M14.8816 5.21671C14.8816 5.43154 14.8448 5.61056 14.7527 5.71797C14.6605 5.82538 14.55 5.89699 14.4026 5.89699C14.2552 5.89699 14.1262 5.84329 14.0525 5.73587C13.9788 5.61056 13.9419 5.44944 13.9419 5.23461V4.93028C13.9419 4.71545 13.9788 4.53643 14.0709 4.42902C14.163 4.32161 14.2736 4.25 14.421 4.25C14.5684 4.25 14.6974 4.30371 14.7711 4.42902C14.8448 4.53643 14.9001 4.71545 14.9001 4.93028V5.21671H14.8816ZM14.5684 4.89447C14.5684 4.76916 14.55 4.67965 14.5315 4.60804C14.5131 4.55434 14.4578 4.51853 14.421 4.51853C14.3289 4.51853 14.2736 4.62594 14.2552 4.85867V5.25252C14.2552 5.37783 14.2736 5.46734 14.292 5.53895C14.3104 5.59266 14.3657 5.62846 14.421 5.62846C14.4763 5.62846 14.5131 5.59266 14.5315 5.53895C14.55 5.48524 14.5684 5.39573 14.5684 5.27042V4.89447Z" fill="white"/>
<path d="M16.1715 5.21671C16.1715 5.43154 16.1347 5.61056 16.0426 5.71797C15.9504 5.82538 15.8399 5.89699 15.6925 5.89699C15.545 5.89699 15.4161 5.84329 15.3424 5.73587C15.2687 5.61056 15.2318 5.44944 15.2318 5.23461V4.93028C15.2318 4.71545 15.2687 4.53643 15.3608 4.42902C15.4529 4.32161 15.5635 4.25 15.7109 4.25C15.8583 4.25 15.9873 4.30371 16.061 4.42902C16.1347 4.53643 16.19 4.71545 16.19 4.93028V5.21671H16.1715ZM15.8583 4.89447C15.8583 4.76916 15.8399 4.67965 15.8214 4.60804C15.803 4.55434 15.7477 4.51853 15.7109 4.51853C15.6188 4.51853 15.5635 4.62594 15.545 4.85867V5.25252C15.545 5.37783 15.5635 5.46734 15.5819 5.53895C15.6003 5.59266 15.6556 5.62846 15.7109 5.62846C15.7662 5.62846 15.803 5.59266 15.8214 5.53895C15.8399 5.48524 15.8583 5.39573 15.8583 5.27042V4.89447Z" fill="white"/>
<path d="M17.2222 5.87927H16.8906V4.66193L16.5773 4.78724V4.53661L17.167 4.30389H17.2038V5.87927H17.2222Z" fill="white"/>
<path d="M17.8481 4.82254C17.8481 4.76883 17.8665 4.73303 17.9033 4.69722C17.9402 4.66142 17.977 4.64352 18.0323 4.64352C18.0876 4.64352 18.1244 4.66142 18.1613 4.69722C18.1981 4.73303 18.2166 4.76883 18.2166 4.82254C18.2166 4.87624 18.1981 4.91205 18.1613 4.94785C18.1244 4.98366 18.0876 5.00156 18.0323 5.00156C17.977 5.00156 17.9402 4.98366 17.9033 4.94785C17.8665 4.91205 17.8481 4.87624 17.8481 4.82254ZM17.8481 5.71764C17.8481 5.66394 17.8665 5.62813 17.9033 5.59233C17.9402 5.55652 17.977 5.53862 18.0323 5.53862C18.0876 5.53862 18.1244 5.55652 18.1613 5.59233C18.1981 5.62813 18.2166 5.66394 18.2166 5.71764C18.2166 5.77135 18.1981 5.80715 18.1613 5.84296C18.1244 5.87876 18.0876 5.89666 18.0323 5.89666C17.977 5.89666 17.9402 5.87876 17.9033 5.84296C17.8665 5.80715 17.8481 5.77135 17.8481 5.71764Z" fill="white"/>
<path d="M18.5666 5.87476V5.65994L19.0088 5.10497C19.0641 5.03337 19.1009 4.96176 19.1378 4.90805C19.1562 4.85435 19.1747 4.80064 19.1747 4.74693C19.1747 4.67532 19.1562 4.62162 19.1378 4.58581C19.1194 4.55001 19.0825 4.53211 19.0272 4.53211C18.972 4.53211 18.9351 4.55001 18.8983 4.60372C18.8614 4.65742 18.8614 4.71113 18.8614 4.80064H18.5482C18.5482 4.71113 18.5666 4.62162 18.6034 4.53211C18.6403 4.4426 18.6956 4.38889 18.7877 4.33519C18.8614 4.28148 18.9535 4.26358 19.0457 4.26358C19.1931 4.26358 19.3036 4.29938 19.3773 4.38889C19.451 4.4784 19.5063 4.58581 19.5063 4.72903C19.5063 4.81854 19.4879 4.90805 19.4326 4.99756C19.3958 5.08707 19.3036 5.19448 19.1931 5.3377L18.9904 5.62413H19.5432V5.87476H18.5666Z" fill="white"/>
<path d="M20.7965 5.21239C20.7965 5.42721 20.7596 5.60623 20.6675 5.71364C20.5754 5.82106 20.4648 5.89267 20.3174 5.89267C20.17 5.89267 20.041 5.83896 19.9673 5.73155C19.8936 5.62413 19.8383 5.46302 19.8383 5.24819V4.94386C19.8383 4.72903 19.8752 4.55001 19.9673 4.4426C20.0595 4.33519 20.17 4.26358 20.3174 4.26358C20.4648 4.26358 20.5938 4.31728 20.6675 4.4426C20.7412 4.55001 20.7965 4.72903 20.7965 4.94386V5.21239ZM20.4833 4.89015C20.4833 4.76484 20.4648 4.67532 20.4464 4.60372C20.428 4.55001 20.3727 4.51421 20.3358 4.51421C20.2437 4.51421 20.1884 4.62162 20.17 4.85435V5.24819C20.17 5.37351 20.1884 5.46302 20.2069 5.53462C20.2253 5.58833 20.2806 5.62413 20.3358 5.62413C20.3911 5.62413 20.428 5.58833 20.4464 5.53462C20.4648 5.48092 20.4833 5.39141 20.4833 5.26609V4.89015Z" fill="white"/>
<path d="M21.8468 5.87927H21.5335V4.66193L21.2203 4.78724V4.53661L21.8099 4.30389H21.8468V5.87927Z" fill="white"/>
<path d="M22.8605 4.94802C22.9157 4.94802 22.9526 4.93012 22.9894 4.89431C23.0079 4.85851 23.0263 4.8048 23.0263 4.73319C23.0263 4.66159 23.0079 4.62578 22.9894 4.58998C22.9526 4.55417 22.9157 4.53627 22.8789 4.53627C22.842 4.53627 22.8052 4.55417 22.7683 4.58998C22.7315 4.62578 22.7315 4.66159 22.7315 4.71529H22.4182C22.4182 4.62578 22.4367 4.55417 22.4735 4.50047C22.5104 4.42886 22.5656 4.37515 22.6393 4.33935C22.713 4.30354 22.7868 4.28564 22.8789 4.28564C23.0263 4.28564 23.1553 4.32145 23.229 4.41096C23.3211 4.50047 23.358 4.60788 23.358 4.7511C23.358 4.8227 23.3395 4.89431 23.3027 4.94802C23.2658 5.00173 23.2106 5.05543 23.1553 5.09124C23.229 5.12704 23.2843 5.16284 23.3211 5.23445C23.358 5.30606 23.3764 5.37767 23.3764 5.46718C23.3764 5.6104 23.3211 5.71781 23.229 5.80732C23.1368 5.89683 23.0079 5.93263 22.8605 5.93263C22.713 5.93263 22.6025 5.89683 22.5104 5.80732C22.4182 5.71781 22.3814 5.6104 22.3814 5.46718H22.6946C22.6946 5.52089 22.713 5.57459 22.7315 5.6104C22.7499 5.6462 22.8052 5.6641 22.842 5.6641C22.8973 5.6641 22.9342 5.6462 22.971 5.6104C23.0079 5.57459 23.0263 5.52089 23.0263 5.44928C23.0263 5.28816 22.971 5.21655 22.842 5.21655H22.6946V4.94802H22.8605Z" fill="white"/>
<path d="M20.4834 12.0908H20.2254L19.1014 14.0063L18.088 12.0908V13.0933L19.1014 14.9193L20.207 13.0396V15.5459H20.465C20.6492 15.5459 20.7966 15.4026 20.7966 15.2236V12.413C20.8151 12.234 20.6676 12.0908 20.4834 12.0908Z" fill="white"/>
<path d="M17.4063 12.413V15.2057C17.4063 15.3847 17.5537 15.5279 17.7379 15.5279H17.9959V12.0908H17.7379C17.5537 12.0908 17.4063 12.234 17.4063 12.413Z" fill="white"/>
<path d="M24.1138 14.15C24.0585 14.0426 23.9664 13.9531 23.8559 13.8635C23.7453 13.7919 23.6163 13.7203 23.4505 13.6845C23.3031 13.6308 23.1372 13.595 22.9345 13.5592L22.8056 13.5234V13.9889L22.8608 14.0068C22.9714 14.0247 23.0635 14.0605 23.1557 14.0784C23.2846 14.1142 23.3768 14.15 23.4689 14.2037C23.5426 14.2574 23.5979 14.3111 23.6532 14.3648C23.69 14.4185 23.7084 14.508 23.7084 14.5975C23.7084 14.7586 23.6347 14.884 23.5058 14.9735C23.3583 15.063 23.1557 15.0988 22.8977 15.0988H22.824V15.5284H22.8977C23.0819 15.5284 23.2662 15.5105 23.4136 15.4747C23.5795 15.4389 23.7084 15.3852 23.8374 15.2957C23.948 15.2062 24.0585 15.1167 24.1138 14.9914C24.1875 14.8661 24.206 14.7228 24.206 14.5617C24.206 14.4006 24.1691 14.2574 24.1138 14.15Z" fill="white"/>
<path d="M23.3768 12.5386C23.5242 12.5923 23.6532 12.6818 23.7453 12.7714L23.8006 12.843L24.0401 12.4491L24.0033 12.4133C23.8559 12.288 23.6716 12.1806 23.4873 12.1269C23.3031 12.0553 23.1004 12.0195 22.8793 12.0195H22.8056V12.4491H22.8793C23.0635 12.4491 23.2294 12.4849 23.3768 12.5386Z" fill="white"/>
<path d="M22.1418 12.0868C21.9759 12.1226 21.847 12.1942 21.7364 12.2837C21.6258 12.3732 21.5153 12.4806 21.46 12.6059C21.3863 12.7312 21.3679 12.8744 21.3679 13.0356C21.3679 13.1788 21.3863 13.3041 21.4416 13.4115C21.4969 13.5189 21.5706 13.6084 21.6811 13.68C21.7733 13.7516 21.9022 13.8054 22.0496 13.8591C22.1786 13.8949 22.3445 13.9486 22.5287 13.9844L22.6208 14.0023V13.5368L22.5656 13.5189C22.4919 13.501 22.4182 13.4831 22.3445 13.4652C22.2339 13.4294 22.1418 13.3936 22.0681 13.3578C21.9944 13.322 21.9575 13.2683 21.9207 13.2146C21.8838 13.1609 21.8654 13.0893 21.8654 12.9998C21.8654 12.8207 21.9207 12.6954 22.0496 12.6059C22.1602 12.5164 22.326 12.4806 22.5471 12.4627H22.6208V12.033H22.5471C22.3629 12.033 22.2523 12.051 22.1418 12.0868Z" fill="white"/>
<path d="M22.3261 15.0627C22.2156 15.0448 22.105 15.009 21.9945 14.9732C21.9023 14.9374 21.7918 14.8837 21.7181 14.83C21.6444 14.7763 21.5707 14.7226 21.497 14.6689L21.4417 14.6152L21.1837 15.009L21.2206 15.0448C21.5891 15.3313 22.0129 15.5103 22.492 15.5282H22.5657V15.0985H22.5104C22.4551 15.0806 22.3814 15.0806 22.3261 15.0627Z" fill="white"/>
</g>
<defs>
<clipPath id="clip0_134_1961">
<rect width="26" height="34" fill="white" transform="translate(0.5)"/>
</clipPath>
</defs>
</svg>
