<svg width="31" height="15" viewBox="0 0 31 15" fill="none" xmlns="http://www.w3.org/2000/svg">
<path d="M11.2598 4.38321V7.05964H10.4085V4.64357C10.4085 3.98786 10.0567 3.59304 9.48344 3.59304C8.81227 3.61982 8.41074 4.18554 8.41074 4.93125V7.05964H7.55947V4.64357C7.55947 3.98786 7.21601 3.59304 6.64276 3.59304C5.96371 3.61982 5.55382 4.18554 5.55382 4.93125V7.05964H4.71141V2.75786H5.55431V3.59304C5.82495 2.99089 6.3239 2.73054 6.97884 2.73054C7.67461 2.73054 8.15782 3.10768 8.33792 3.76339C8.59182 3.045 9.1075 2.73054 9.82788 2.73054C10.7284 2.73054 11.2603 3.35946 11.2603 4.38321H11.2598ZM16.8595 2.75732V7.05964H16.0161V6.33214C15.7297 6.82607 15.2632 7.10464 14.6491 7.10464C13.5193 7.10464 12.7744 6.20679 12.7744 4.89536C12.7744 3.61071 13.5193 2.73054 14.6245 2.72143C15.2549 2.71232 15.7381 2.99089 16.0244 3.48482V2.75732H16.8595V2.75732ZM16.0161 5.08393V4.76946C15.9506 4.02375 15.4842 3.52125 14.8213 3.52125C14.1172 3.52125 13.6178 4.11375 13.6094 4.93125C13.6178 5.74821 14.1005 6.33214 14.8209 6.33214C15.4842 6.32357 15.9506 5.82054 16.0166 5.08393H16.0161ZM20.8216 6.79018C20.5106 6.98839 20.1834 7.10464 19.8802 7.10464C19.2583 7.10464 18.7583 6.6375 18.7583 5.69464V1.74268H19.6017V2.91911H20.7561V3.61071H19.6017V5.52375C19.6017 6.03589 19.7572 6.25125 20.0357 6.25125C20.1912 6.25125 20.3797 6.18857 20.609 6.06268L20.8216 6.79018ZM25.1689 5.72143L25.66 6.225C25.2177 6.8175 24.6449 7.09607 23.9654 7.09607C22.7539 7.09607 21.9267 6.21536 21.9267 4.91304C21.9267 3.65571 22.688 2.74875 23.8915 2.73054C24.9559 2.71232 25.6763 3.43125 25.7417 4.60768L22.8927 5.54196C23.0811 6.045 23.4905 6.35036 24.0224 6.35036C24.4481 6.35036 24.8491 6.135 25.1689 5.72143V5.72143ZM22.7701 4.85893L24.9229 4.16786C24.7428 3.6825 24.4072 3.47625 23.9408 3.47625C23.2282 3.47625 22.7696 3.96107 22.7696 4.85946L22.7701 4.85893ZM6.80661 9.96964V12.4489H6.47103V11.9191C6.2988 12.2604 5.99619 12.4671 5.59515 12.4671C4.94809 12.4671 4.49785 11.9459 4.49785 11.2007C4.49785 10.4641 4.94022 9.94286 5.57842 9.94286C5.98782 9.93429 6.2993 10.1411 6.47103 10.4909V9.97018H6.80661V9.96964ZM6.47103 11.3084V11.1198C6.43019 10.6168 6.10247 10.2664 5.6606 10.2664C5.17739 10.2664 4.8418 10.6618 4.8418 11.2093C4.8418 11.7573 5.18576 12.1527 5.6606 12.1527C6.10247 12.1527 6.43019 11.8114 6.47103 11.3084ZM8.3699 9.70982V10.0511H9.01696V10.3382H8.3699V12.458H8.04219V9.75429C8.04219 9.21536 8.3945 8.92821 8.76257 8.92821C8.94266 8.93732 9.11488 8.99089 9.24577 9.09857L9.11488 9.38625C9.01315 9.30868 8.89424 9.26207 8.77044 9.25125C8.54999 9.25125 8.3699 9.41304 8.3699 9.70982V9.70982ZM10.5069 8.91964C10.6546 8.92821 10.8017 8.96411 10.9163 9.045L10.8996 9.37714C10.7766 9.30536 10.6378 9.25125 10.5069 9.25125C10.2776 9.25125 10.1059 9.40446 10.1059 9.70071V10.042H10.7525V10.3291H10.1138V12.4489H9.78655V9.74571C9.77819 9.19768 10.1384 8.91911 10.5069 8.91911V8.91964ZM11.0797 9.26036C11.0797 9.11679 11.1781 9.00857 11.3011 9.00857C11.4241 9.00857 11.5221 9.11679 11.5221 9.26036C11.5221 9.40393 11.4236 9.51214 11.3006 9.51214C11.2413 9.5086 11.1854 9.4806 11.1444 9.43383C11.1034 9.38706 11.0802 9.32504 11.0797 9.26036ZM11.1373 9.97018H11.4645V12.4489H11.1373V9.97018ZM13.2659 12.1259C13.3397 12.1259 13.4214 12.09 13.5031 12.0177L13.5686 12.3145C13.4455 12.413 13.3068 12.458 13.1838 12.458C12.9136 12.458 12.7173 12.2512 12.7173 11.8473V8.955H13.0445V11.8205C13.0529 12.0268 13.1345 12.1259 13.2659 12.1259V12.1259ZM14.8622 9.26036C14.8622 9.40393 14.7638 9.51214 14.6408 9.51214C14.6109 9.51188 14.5815 9.5051 14.5541 9.49221C14.5267 9.47932 14.502 9.46058 14.4814 9.43711C14.4608 9.41363 14.4447 9.38589 14.4341 9.35553C14.4236 9.32517 14.4187 9.2928 14.4198 9.26036C14.4198 9.11679 14.5182 9.00857 14.6412 9.00857C14.7643 9.00857 14.8622 9.10768 14.8622 9.26036ZM14.813 9.97018V12.4489H14.4853V9.97018H14.813ZM18.1777 9.96964V12.4489H17.8421V11.9191C17.6699 12.2604 17.3673 12.4671 16.9662 12.4671C16.3192 12.4671 15.8689 11.9459 15.8689 11.2007C15.8689 10.4641 16.3108 9.94286 16.9495 9.94286C17.3589 9.93429 17.6699 10.1411 17.8421 10.4909V9.97018H18.1777V9.96964ZM17.8421 11.3084V11.1198C17.8008 10.6168 17.4731 10.2664 17.0312 10.2664C16.5485 10.2664 16.2129 10.6618 16.2129 11.2093C16.2129 11.7573 16.5569 12.1527 17.0312 12.1527C17.4736 12.1527 17.8008 11.8114 17.8421 11.3084ZM20.4943 12.2871C20.3305 12.4039 20.1504 12.4671 19.9865 12.4671C19.6431 12.4762 19.4059 12.2068 19.4059 11.6679V9.39536H19.7331V10.0511H20.4535V10.3382H19.7331V11.6138C19.7331 11.9641 19.8394 12.135 20.0357 12.135C20.1631 12.1237 20.2863 12.0806 20.3959 12.0091L20.4943 12.2877V12.2871ZM23.0974 11.7664L23.3021 11.9641C23.0565 12.3054 22.7372 12.4671 22.3524 12.4671C21.6733 12.4671 21.2064 11.955 21.2064 11.2093C21.2064 10.4914 21.6566 9.96107 22.3283 9.96107C22.8843 9.95196 23.2942 10.32 23.3675 10.9307L21.6079 11.587C21.722 11.9459 22.0089 12.1709 22.3853 12.1709C22.6555 12.1618 22.901 12.0268 23.0974 11.7664V11.7664ZM21.5424 11.1916C21.5424 11.2275 21.5424 11.2634 21.5503 11.2993L23.0319 10.7336C22.9173 10.4191 22.6717 10.2573 22.3445 10.2573C21.8613 10.2664 21.5424 10.6168 21.5424 11.1916ZM24.9642 10.2664C24.7103 10.2664 24.514 10.365 24.514 10.5986C24.514 11.1648 25.7825 10.868 25.7825 11.7664C25.7825 12.2512 25.3899 12.4671 24.9559 12.4671C24.6365 12.4671 24.3009 12.3412 24.0879 12.1168L24.2193 11.8473C24.4156 12.045 24.702 12.1618 24.9721 12.1618C25.2428 12.1618 25.4553 12.045 25.4553 11.8029C25.4716 11.2007 24.2025 11.5061 24.2025 10.6259C24.2025 10.1496 24.5795 9.95196 24.9884 9.95196C25.259 9.95196 25.5208 10.042 25.7092 10.177L25.5779 10.4641C25.3949 10.3358 25.1819 10.2672 24.9642 10.2664ZM1.73098 15C0.8059 15 0.044678 14.1643 0.044678 13.1411V1.84982C0.0441859 0.835179 0.8059 0 1.73098 0V1.01518C1.30534 1.01518 0.961392 1.39232 0.961392 1.85946V13.1496C0.961392 13.6168 1.30534 13.9939 1.73098 13.9939V15ZM28.8363 15V13.9848C29.2619 13.9848 29.6059 13.6077 29.6059 13.1405V1.85036C29.6059 1.38321 29.2619 1.00607 28.8363 1.00607V0C29.7692 0 30.5226 0.835714 30.5226 1.85036V13.1405C30.5246 13.3834 30.4825 13.6242 30.3988 13.8493C30.315 14.0743 30.1912 14.2791 30.0345 14.4519C29.8778 14.6247 29.6913 14.7621 29.4856 14.8561C29.28 14.9502 29.0593 14.9991 28.8363 15V15Z" fill="white"/>
</svg>
