<svg width="95" height="23" viewBox="0 0 95 23" fill="none" xmlns="http://www.w3.org/2000/svg">
<path d="M42.8016 13.3838V10.1709C42.8016 8.94996 42.0305 8.13602 40.7882 8.13602C40.1242 8.13602 39.4602 8.32879 38.9889 9.05706C38.6248 8.47873 38.0679 8.13602 37.2968 8.13602C36.7399 8.13602 36.2044 8.30737 35.7974 8.90712V8.26453H34.6836V13.3838H35.8188V10.535C35.8188 9.63538 36.3115 9.16415 37.0826 9.16415C37.8323 9.16415 38.1964 9.65681 38.1964 10.5136V13.3624H39.3316V10.5136C39.3316 9.61397 39.8457 9.14273 40.5954 9.14273C41.3665 9.14273 41.7306 9.63539 41.7306 10.4922V13.341H42.8016V13.3838ZM59.4661 8.26453H57.6454V6.7009H56.5316V8.26453H55.482V9.29267H56.5316V11.6274C56.5316 12.8269 57.0028 13.5337 58.3094 13.5337C58.8021 13.5337 59.359 13.3838 59.7017 13.1268L59.3804 12.1629C59.0377 12.3557 58.6735 12.4628 58.3951 12.4628C57.8382 12.4628 57.6454 12.1201 57.6454 11.606V9.29267H59.4661V8.26453ZM68.9978 8.13602C68.3552 8.13602 67.9268 8.43589 67.6483 8.8857V8.26453H66.5345V13.3838H67.6483V10.5136C67.6483 9.65681 68.0125 9.18557 68.7407 9.18557C68.9764 9.18557 69.212 9.22841 69.4476 9.31409L69.7903 8.26453C69.5333 8.17886 69.212 8.13602 68.9978 8.13602ZM54.6038 8.67151C54.0683 8.30737 53.3186 8.13602 52.5047 8.13602C51.1981 8.13602 50.3627 8.75718 50.3627 9.78532C50.3627 10.6207 50.9839 11.1348 52.1406 11.3061L52.6761 11.3918C53.2972 11.4775 53.5757 11.6488 53.5757 11.9273C53.5757 12.3343 53.1687 12.5485 52.3976 12.5485C51.6265 12.5485 51.0696 12.2914 50.684 12.013L50.1485 12.8912C50.7697 13.341 51.5408 13.5552 52.3762 13.5552C53.8541 13.5552 54.7109 12.8483 54.7109 11.8844C54.7109 10.9848 54.0255 10.5136 52.9117 10.3422L52.3762 10.2566C51.8835 10.1923 51.498 10.0852 51.498 9.74248C51.498 9.35693 51.8621 9.14273 52.4833 9.14273C53.1473 9.14273 53.7685 9.39977 54.0897 9.59254L54.6038 8.67151ZM84.4841 8.13602C83.8416 8.13602 83.4132 8.43589 83.1347 8.8857V8.26453H82.0209V13.3838H83.1347V10.5136C83.1347 9.65681 83.4988 9.18557 84.2271 9.18557C84.4627 9.18557 84.6983 9.22841 84.934 9.31409L85.2767 8.26453C85.0411 8.17886 84.7198 8.13602 84.4841 8.13602ZM70.1116 10.8349C70.1116 12.3985 71.204 13.5337 72.8533 13.5337C73.6244 13.5337 74.1385 13.3624 74.6954 12.9126L74.1599 12.013C73.7315 12.3128 73.3031 12.4842 72.8105 12.4842C71.9108 12.4842 71.2683 11.8202 71.2683 10.8349C71.2683 9.84958 71.9323 9.20699 72.8105 9.18557C73.3031 9.18557 73.7315 9.35693 74.1599 9.65681L74.6954 8.75718C74.1385 8.30737 73.6244 8.13602 72.8533 8.13602C71.204 8.13602 70.1116 9.27125 70.1116 10.8349ZM80.5644 10.8349V8.26453H79.4505V8.8857C79.0864 8.41447 78.5509 8.13602 77.8227 8.13602C76.3875 8.13602 75.2523 9.27125 75.2523 10.8349C75.2523 12.3985 76.3875 13.5337 77.8227 13.5337C78.5509 13.5337 79.0864 13.2339 79.4505 12.7841V13.4052H80.5644V10.8349ZM76.409 10.8349C76.409 9.93526 77.0087 9.18557 77.9726 9.18557C78.8936 9.18557 79.5148 9.89242 79.5148 10.8349C79.5148 11.7773 78.8936 12.4842 77.9726 12.4842C77.0087 12.4628 76.409 11.7345 76.409 10.8349ZM62.9575 8.13602C61.4581 8.13602 60.4085 9.22842 60.4085 10.8349C60.4085 12.4628 61.5009 13.5337 63.0431 13.5337C63.8142 13.5337 64.5211 13.341 65.1423 12.8055L64.5853 11.9701C64.157 12.3128 63.6 12.5056 63.086 12.5056C62.3577 12.5056 61.7151 12.1629 61.5438 11.2419H65.3565C65.3779 11.0919 65.3779 10.9634 65.3779 10.8135C65.3779 9.22841 64.3926 8.13602 62.9575 8.13602ZM62.936 9.12132C63.6643 9.12132 64.1141 9.57113 64.2426 10.3637H61.5866C61.6723 9.63539 62.1221 9.12132 62.936 9.12132ZM90.91 10.8349V6.20825H89.7962V8.8857C89.4321 8.41447 88.8966 8.13602 88.1683 8.13602C86.7332 8.13602 85.598 9.27125 85.598 10.8349C85.598 12.3985 86.7332 13.5337 88.1683 13.5337C88.8966 13.5337 89.4321 13.2339 89.7962 12.7841V13.4052H90.91V10.8349ZM86.7546 10.8349C86.7546 9.93526 87.3544 9.18557 88.3183 9.18557C89.2393 9.18557 89.8605 9.89242 89.8605 10.8349C89.8605 11.7773 89.2393 12.4842 88.3183 12.4842C87.3544 12.4628 86.7546 11.7345 86.7546 10.8349ZM49.0776 10.8349V8.26453H47.9637V8.8857C47.5996 8.41447 47.0641 8.13602 46.3359 8.13602C44.9007 8.13602 43.7655 9.27125 43.7655 10.8349C43.7655 12.3985 44.9007 13.5337 46.3359 13.5337C47.0641 13.5337 47.5996 13.2339 47.9637 12.7841V13.4052H49.0776V10.8349ZM44.9436 10.8349C44.9436 9.93526 45.5433 9.18557 46.5072 9.18557C47.4283 9.18557 48.0494 9.89242 48.0494 10.8349C48.0494 11.7773 47.4283 12.4842 46.5072 12.4842C45.5219 12.4628 44.9436 11.7345 44.9436 10.8349Z" fill="white"/>
<path d="M17.2266 16.6532C18.9879 15.2605 20.1182 13.1048 20.1182 10.685C20.1182 8.26525 18.9879 6.10948 17.2266 4.71685C18.5221 3.69252 20.1591 3.08105 21.9389 3.08105C26.1384 3.08105 29.5428 6.48546 29.5428 10.685C29.5428 14.8846 26.1384 18.289 21.9389 18.289C20.1591 18.289 18.5221 17.6775 17.2266 16.6532Z" fill="white"/>
<path opacity="0.28" d="M17.2264 4.71685C15.465 6.10948 14.3348 8.26525 14.3348 10.685C14.3348 13.1048 15.465 15.2605 17.2264 16.6532C15.9309 17.6775 14.2939 18.289 12.5141 18.289C8.31456 18.289 4.91016 14.8846 4.91016 10.685C4.91016 6.48546 8.31456 3.08105 12.5141 3.08105C14.2939 3.08105 15.9309 3.69252 17.2264 4.71685Z" fill="white"/>
<path opacity="0.52" d="M17.2261 16.6531C18.9875 15.2605 20.1178 13.1047 20.1178 10.685C20.1178 8.2652 18.9875 6.10944 17.2261 4.7168C15.4647 6.10944 14.3345 8.2652 14.3345 10.685C14.3345 13.1047 15.4647 15.2605 17.2261 16.6531Z" fill="white"/>
</svg>
