<svg width="48" height="16" viewBox="0 0 48 16" fill="none" xmlns="http://www.w3.org/2000/svg">
<path d="M47.9099 14.9587C46.7364 14.9587 45.5628 14.9587 44.3718 14.9587C44.2423 14.3443 44.1034 13.7432 43.9938 13.137C43.9483 12.8854 43.8668 12.7879 43.5825 12.7915C42.1638 12.8095 40.7447 12.8051 39.3258 12.794C39.111 12.7923 39.0257 12.8624 38.9603 13.0556C38.7649 13.6332 38.5511 14.205 38.3324 14.7746C38.3027 14.8519 38.2043 14.958 38.1369 14.9586C36.8581 14.9695 35.5791 14.9667 34.2633 14.9667C34.503 14.3963 34.7301 13.8518 34.9606 13.3087C36.6096 9.42299 38.2593 5.53761 39.9088 1.65218C40.266 0.810639 40.8016 0.458245 41.7229 0.458193C42.7496 0.458125 43.7763 0.458176 44.8292 0.458176C44.9319 0.931892 45.0353 1.39868 45.1341 1.8664C45.9456 5.70627 46.7551 9.54653 47.5685 13.386C47.6727 13.8778 47.7957 14.3658 47.9099 14.8555C47.9099 14.8899 47.9099 14.9243 47.9099 14.9587ZM43.2792 9.80588C42.9021 8.02036 42.53 6.25885 42.158 4.49733C42.1429 4.49439 42.1277 4.49145 42.1125 4.48851C41.4643 6.25445 40.816 8.02039 40.1606 9.80588C41.2192 9.80588 42.2328 9.80588 43.2792 9.80588Z" fill="white"/>
<path d="M32.4961 0.199951C32.963 0.285581 33.4335 0.355981 33.8958 0.461311C34.3177 0.557425 34.7308 0.691381 35.1792 0.817517C34.9532 1.86129 34.7326 2.88004 34.5167 3.87682C33.9252 3.70547 33.3598 3.50819 32.7786 3.3815C31.9836 3.20821 31.1691 3.14217 30.3739 3.36103C30.0506 3.45 29.7233 3.62084 29.4688 3.83621C29.0323 4.20561 29.0264 4.73739 29.4434 5.12522C29.7309 5.39264 30.0717 5.61219 30.4123 5.81443C31.1864 6.27422 31.9992 6.67405 32.7516 7.16517C33.6376 7.74358 34.2839 8.53879 34.4196 9.61401C34.6595 11.5156 33.9475 13.0136 32.3301 14.0733C31.313 14.7396 30.1621 15.0373 28.9628 15.1475C27.2883 15.3014 25.6469 15.1161 24.0469 14.5971C23.9396 14.5623 23.8352 14.5188 23.7306 14.4765C23.6994 14.4639 23.6723 14.4416 23.6244 14.4121C23.8504 13.3668 24.0768 12.3199 24.3095 11.2436C24.5822 11.3613 24.8382 11.4791 25.0999 11.5832C26.3499 12.0807 27.6408 12.3082 28.9787 12.0607C29.3269 11.9963 29.6818 11.8445 29.9769 11.6492C30.6171 11.2252 30.6785 10.4287 30.0955 9.93082C29.7124 9.60357 29.2518 9.36186 28.8152 9.0992C28.1333 8.68897 27.4089 8.33933 26.7636 7.8802C25.9365 7.29165 25.3374 6.50691 25.2239 5.46393C25.0538 3.90228 25.6406 2.63425 26.8543 1.64896C27.9104 0.791683 29.1642 0.411228 30.5 0.251447C30.5742 0.242565 30.6464 0.217493 30.7196 0.199951C31.3117 0.199951 31.9039 0.199951 32.4961 0.199951Z" fill="white"/>
<path d="M18.737 0.469988C18.5382 0.94236 18.3501 1.39274 18.1593 1.84207C16.3384 6.13236 14.5152 10.4217 12.7016 14.715C12.6152 14.9196 12.5095 14.9733 12.2995 14.9716C11.1502 14.9622 10.0006 14.9584 8.85152 14.9741C8.60788 14.9774 8.52847 14.893 8.47238 14.6772C7.49801 10.9271 6.5074 7.18118 5.54411 3.4284C5.36737 2.73991 5.0136 2.26969 4.35007 1.98111C3.28644 1.51853 2.18236 1.19358 1.05616 0.929451C1.00632 0.917767 0.956742 0.904987 0.909912 0.893441C0.915534 0.458201 0.915534 0.458184 1.33466 0.458175C3.34604 0.458175 5.35742 0.45773 7.36883 0.458372C8.32279 0.45868 9.01146 1.00601 9.19183 1.93862C9.70243 4.57875 10.2022 7.22093 10.7065 9.86225C10.7286 9.97776 10.7537 10.0927 10.7872 10.2554C10.8393 10.1585 10.8757 10.1041 10.8995 10.0448C12.1487 6.92411 13.3984 3.80358 14.6413 0.680425C14.7091 0.509936 14.7927 0.452102 14.9791 0.453567C16.1458 0.462698 17.3127 0.457987 18.4794 0.458621C18.5548 0.458664 18.6302 0.465097 18.737 0.469988Z" fill="white"/>
<path d="M17.2138 14.9671C18.2646 10.1172 19.308 5.3013 20.3539 0.473671C21.6263 0.473671 22.8836 0.473671 24.165 0.473671C24.0064 1.20895 23.8512 1.93019 23.6951 2.65121C22.8317 6.63879 21.9651 10.6257 21.1112 14.6152C21.0519 14.8924 20.9524 14.9805 20.6611 14.9749C19.6167 14.955 18.5716 14.9671 17.5268 14.9671C17.4331 14.9671 17.3394 14.9671 17.2138 14.9671Z" fill="white"/>
</svg>
