<svg width="21" height="20" viewBox="0 0 21 20" fill="none" xmlns="http://www.w3.org/2000/svg">
<g clip-path="url(#clip0_134_1791)">
<rect x="0.5" width="20" height="20" rx="2.28571" fill="white"/>
<mask id="mask0_134_1791" style="mask-type:alpha" maskUnits="userSpaceOnUse" x="0" y="0" width="21" height="20">
<rect x="0.5" width="20" height="20" rx="2.28571" fill="white"/>
</mask>
<g mask="url(#mask0_134_1791)">
<rect x="0.5" width="20" height="20" fill="#0A17A7"/>
<path fill-rule="evenodd" clip-rule="evenodd" d="M-0.416072 -1.9165L8.11902 6.14329V-1.33339H12.8809V6.14329L21.416 -1.9165L22.4812 0.294265L15.733 6.66661H20.5V13.3333H15.733L22.4812 19.7056L21.416 21.9164L12.8809 13.8566V21.3333H8.11902V13.8566L-0.416072 21.9164L-1.4812 19.7056L5.26693 13.3333H0.499977V6.66661H5.26693L-1.4812 0.294263L-0.416072 -1.9165Z" fill="white"/>
<path d="M13.8342 6.33219L22.8809 -2" stroke="#DB1F35" stroke-width="0.761905" stroke-linecap="round"/>
<path d="M14.7949 13.6975L22.9048 21.3503" stroke="#DB1F35" stroke-width="0.761905" stroke-linecap="round"/>
<path d="M6.21833 6.31055L-2.24097 -1.6709" stroke="#DB1F35" stroke-width="0.761905" stroke-linecap="round"/>
<path d="M7.13583 13.605L-2.24097 22.3105" stroke="#DB1F35" stroke-width="0.761905" stroke-linecap="round"/>
<path fill-rule="evenodd" clip-rule="evenodd" d="M0.5 12H9.07143V20H11.9286V12H20.5V8H11.9286V0H9.07143V8H0.5V12Z" fill="#E6273E"/>
</g>
</g>
<defs>
<clipPath id="clip0_134_1791">
<rect width="20" height="20" fill="white" transform="translate(0.5)"/>
</clipPath>
</defs>
</svg>
