<svg width="21" height="20" viewBox="0 0 21 20" fill="none" xmlns="http://www.w3.org/2000/svg">
<g clip-path="url(#clip0_134_1807)">
<path d="M20.5001 8.20843C20.5001 4.37582 16.7819 1.25781 12.2119 1.25781C7.64181 1.25781 3.92371 4.37585 3.92371 8.20843C3.92371 12.041 7.64181 15.1591 12.2119 15.1591C12.5962 15.1591 12.9818 15.1368 13.3609 15.0929C15.1211 16.2111 16.4206 16.8232 17.226 16.9127C17.254 16.9157 17.2822 16.9173 17.3098 16.9173C17.5685 16.9173 17.8079 16.7883 17.9505 16.5722C18.1099 16.3303 18.1203 16.0235 17.9783 15.773C17.9717 15.7611 17.3502 14.6271 17.5295 13.5439C19.4204 12.2207 20.5001 10.2869 20.5001 8.20843ZM9.96103 9.25817C9.28289 9.25817 8.73331 8.70847 8.73331 8.03043C8.73331 7.35236 9.28289 6.80268 9.96103 6.80268C10.639 6.80268 11.1888 7.35239 11.1888 8.03043C11.1889 8.70847 10.6391 9.25817 9.96103 9.25817ZM14.463 9.25817C13.7848 9.25817 13.2351 8.70847 13.2351 8.03043C13.2351 7.35236 13.7848 6.80268 14.463 6.80268C15.141 6.80268 15.6907 7.35239 15.6907 8.03043C15.6907 8.70847 15.141 9.25817 14.463 9.25817Z" fill="white"/>
<path d="M5.67461 13.7695C4.85222 13.0886 4.20395 12.2915 3.74807 11.4005C3.26739 10.4611 3.02369 9.46183 3.02369 8.43045C3.02369 7.39905 3.26742 6.3998 3.74807 5.46042C3.78487 5.38853 3.8234 5.31751 3.86265 5.24683C1.83268 6.40983 0.5 8.35088 0.5 10.5451C0.5 12.5164 1.56193 14.3442 3.41712 15.5737C3.75977 16.9207 2.96464 18.3458 2.95624 18.3604C2.90886 18.444 2.91235 18.5471 2.96523 18.6273C3.01288 18.6996 3.09333 18.7424 3.17873 18.7424C3.18817 18.7424 3.19758 18.7418 3.20712 18.7408C4.13529 18.6377 5.76977 17.6943 7.00801 16.8989C7.42503 16.9555 7.85134 16.9841 8.27667 16.9841C9.90333 16.9841 11.4146 16.5682 12.6644 15.8584C12.3852 15.8807 12.104 15.8926 11.8236 15.8926C9.51196 15.8926 7.32824 15.1386 5.67461 13.7695Z" fill="white"/>
</g>
<defs>
<clipPath id="clip0_134_1807">
<rect width="20" height="20" fill="white" transform="translate(0.5)"/>
</clipPath>
</defs>
</svg>
