<svg width="17" height="17" viewBox="0 0 17 17" fill="none" xmlns="http://www.w3.org/2000/svg">
<path fill-rule="evenodd" clip-rule="evenodd" d="M11.0477 12.4926C9.96941 13.275 8.64261 13.7364 7.20794 13.7364C3.59527 13.7364 0.666626 10.8106 0.666626 7.20145C0.666626 3.5923 3.59527 0.666504 7.20794 0.666504C10.8206 0.666504 13.7493 3.5923 13.7493 7.20145C13.7493 8.64618 13.28 9.98141 12.4854 11.0633L16.25 14.8263L14.8065 16.2498L11.0477 12.4926ZM11.9378 7.20145C11.9378 9.81114 9.82018 11.9267 7.20794 11.9267C4.5957 11.9267 2.47807 9.81114 2.47807 7.20145C2.47807 4.59176 4.5957 2.47618 7.20794 2.47618C9.82018 2.47618 11.9378 4.59176 11.9378 7.20145Z" fill="#492801"/>
</svg>
